HIERARCHY
ROOT Hips
{
	OFFSET -32.860001 56.121803 44.745396
	CHANNELS 6 Xposition Yposition Zposition Zrotation Xrotation Yrotation
	JOINT Chest
	{
		OFFSET -0.637402 0.831600 5.390099
		CHANNELS 6 Xposition Yposition Zposition Zrotation Xrotation Yrotation
		JOINT Chest2
		{
			OFFSET 0.000000 0.000000 4.429901
			CHANNELS 6 Xposition Yposition Zposition Zrotation Xrotation Yrotation
			JOINT Neck
			{
				OFFSET 0.000000 0.000000 10.301395
				CHANNELS 6 Xposition Yposition Zposition Zrotation Xrotation Yrotation
				JOINT Head
				{
					OFFSET 0.000000 0.000000 2.173897
					CHANNELS 6 Xposition Yposition Zposition Zrotation Xrotation Yrotation
					End Site
					{
						OFFSET 0.000000 0.000000 8.298004
					}
				}
			}
			JOINT LeftCollar
			{
				OFFSET 2.142401 -0.572701 5.717800
				CHANNELS 6 Xposition Yposition Zposition Zrotation Xrotation Yrotation
				JOINT LeftShoulder
				{
					OFFSET 5.674000 0.000000 0.000000
					CHANNELS 6 Xposition Yposition Zposition Zrotation Xrotation Yrotation
					JOINT LeftElbow
					{
						OFFSET 0.000000 0.000000 -12.238701
						CHANNELS 6 Xposition Yposition Zposition Zrotation Xrotation Yrotation
						JOINT LeftWrist
						{
							OFFSET 0.000000 0.000000 -10.253700
							CHANNELS 6 Xposition Yposition Zposition Zrotation Xrotation Yrotation
							End Site
							{
								OFFSET 0.000000 0.000000 -2.173901
							}
						}
					}
				}
			}
			JOINT RightCollar
			{
				OFFSET -2.882599 -1.580101 6.695801
				CHANNELS 6 Xposition Yposition Zposition Zrotation Xrotation Yrotation
				JOINT RightShoulder
				{
					OFFSET -4.235600 0.000000 0.000000
					CHANNELS 6 Xposition Yposition Zposition Zrotation Xrotation Yrotation
					JOINT RightElbow
					{
						OFFSET 0.000000 0.000000 -10.709900
						CHANNELS 6 Xposition Yposition Zposition Zrotation Xrotation Yrotation
						JOINT RightWrist
						{
							OFFSET 0.000000 0.000000 -11.716801
							CHANNELS 6 Xposition Yposition Zposition Zrotation Xrotation Yrotation
							End Site
							{
								OFFSET 0.000000 0.000000 -2.173901
							}
						}
					}
				}
			}
		}
	}
	JOINT LeftHip
	{
		OFFSET 2.279499 0.210400 -2.475502
		CHANNELS 6 Xposition Yposition Zposition Zrotation Xrotation Yrotation
		JOINT LeftKnee
		{
			OFFSET 0.000000 -0.000004 -20.742800
			CHANNELS 6 Xposition Yposition Zposition Zrotation Xrotation Yrotation
			JOINT LeftAnkle
			{
				OFFSET 0.000000 0.000000 -16.666000
				CHANNELS 6 Xposition Yposition Zposition Zrotation Xrotation Yrotation
				End Site
				{
					OFFSET 0.000000 -8.310898 0.000000
				}
			}
		}
	}
	JOINT RightHip
	{
		OFFSET -1.961899 0.232300 -2.727402
		CHANNELS 6 Xposition Yposition Zposition Zrotation Xrotation Yrotation
		JOINT RightKnee
		{
			OFFSET 0.000000 -0.000004 -20.526800
			CHANNELS 6 Xposition Yposition Zposition Zrotation Xrotation Yrotation
			JOINT RightAnkle
			{
				OFFSET 0.000000 0.000000 -16.867300
				CHANNELS 6 Xposition Yposition Zposition Zrotation Xrotation Yrotation
				End Site
				{
					OFFSET 0.000000 -7.186401 0.000000
				}
			}
		}
	}
}
MOTION
Frames: 6
Frame Time: 0.041667
70.359711 66.879684 25.375494 24.926881 -58.508418 72.426513 -0.637398 0.831595 5.390112 14.855981 11.687651 0.449833 -0.000005 0.000011 4.429889 -6.250243 -0.301422 0.092133 0.000007 0.000001 10.301408 435.265553 -7.144074 -1.665040 -0.000006 -0.000003 2.173894 -353.302736 4.271785 -0.354850 2.142401 -0.572699 5.717824 14.553332 -9.267413 -11.330670 5.673999 0.000005 -0.000011 185.413927 141.548772 116.427227 0.000004 -0.000005 -12.238702 -178.453268 -170.073705 -175.690087 0.000002 0.000003 -10.253701 88.859040 -4.762457 30.982158 -2.882602 -1.580094 6.695814 -4.094252 -18.172195 35.652648 -4.235601 0.000009 -0.000013 -5.906398 22.100510 62.198380 -0.000005 -0.000002 -10.709899 -2.473389 -18.409607 -10.896535 -0.000007 0.000010 -11.716798 75.028009 15.137781 56.670274 2.279488 0.210395 -2.475492 64.621226 -38.026761 -11.225073 -0.000006 -0.000002 -20.742805 -176.638172 -24.546377 142.014741 -0.000003 0.000001 -16.666000 96.980449 3.094148 54.835757 -1.961898 0.232298 -2.727386 -250.488145 28.870182 -69.504319 -0.000003 -0.000000 -20.526800 366.280205 32.223487 -95.112993 0.000005 0.000003 -16.867294 -36.601006 16.261179 -9.325635
70.316010 66.847595 25.371992 24.996945 -58.381950 72.460534 -0.637398 0.831597 5.390094 14.857171 11.669851 0.473253 -0.000007 -0.000003 4.429889 -6.232069 -0.290672 0.092595 0.000009 0.000004 10.301395 435.291726 -7.171209 -1.531111 -0.000003 -0.000004 2.173894 -353.369071 4.138234 -0.420704 2.142403 -0.572696 5.717802 14.555020 -9.259509 -11.356045 5.673996 0.000009 -0.000006 185.347415 141.491153 116.195069 0.000003 0.000001 -12.238693 -178.397725 -169.861013 -175.556311 0.000005 -0.000004 -10.253702 88.903218 -4.673164 30.712154 -2.882604 -1.580089 6.695795 -4.131149 -18.207234 35.652904 -4.235588 0.000011 0.000004 -5.953711 22.230599 62.178340 0.000002 0.000007 -10.709907 -2.397347 -18.382740 -10.872436 -0.000011 0.000006 -11.716808 75.042100 15.222250 56.509020 2.279503 0.210396 -2.475506 64.461727 -38.045513 -11.329085 0.000002 -0.000009 -20.742800 -176.611029 -24.687142 142.053605 -0.000000 -0.000003 -16.665989 97.030842 3.101702 54.898038 -1.961898 0.232302 -2.727404 -250.635513 28.897550 -69.564206 -0.000007 0.000008 -20.526804 366.346786 32.383583 -95.095788 -0.000007 0.000000 -16.867302 -36.470379 16.239036 -9.300791
70.282814 66.807999 25.365189 24.804144 -58.318655 72.217223 -0.637408 0.831603 5.390094 14.896484 11.565173 0.595455 0.000009 -0.000002 4.429900 -6.165190 -0.276424 0.094255 0.000007 0.000005 10.301391 435.295606 -7.219175 -1.331664 -0.000001 0.000003 2.173901 -353.317790 4.087904 -0.529631 2.142404 -0.572695 5.717803 14.904306 -8.524884 -11.344400 5.674003 0.000006 -0.000010 185.025849 142.223485 116.071702 0.000002 -0.000011 -12.238695 -178.349626 -169.686105 -175.435567 0.000013 0.000005 -10.253697 88.916250 -4.620054 30.539920 -2.882600 -1.580091 6.695787 -4.196479 -18.131854 35.580262 -4.235592 0.000020 0.000010 -5.949146 22.267525 62.190799 0.000011 0.000002 -10.709910 -2.428793 -18.167250 -10.868595 -0.000002 0.000000 -11.716802 75.049238 15.264605 56.523490 2.279491 0.210405 -2.475513 65.154049 -38.239046 -10.879904 -0.000004 0.000002 -20.742802 -176.939739 -24.875554 142.114284 -0.000008 0.000009 -16.666008 97.191987 3.124495 54.899343 -1.961910 0.232307 -2.727401 -250.749686 29.048668 -69.472709 0.000005 0.000000 -20.526802 366.505246 32.803838 -95.147185 -0.000007 0.000004 -16.867304 -36.114226 16.282674 -9.133290
70.244904 66.773300 25.361885 24.407623 -58.211223 71.819384 -0.637407 0.831603 5.390096 14.940424 11.346040 0.733077 -0.000005 0.000006 4.429901 -6.124818 -0.258052 0.096322 0.000013 0.000001 10.301392 435.226593 -7.279517 -1.119726 -0.000004 0.000004 2.173905 -353.239434 4.014982 -0.646007 2.142413 -0.572705 5.717797 14.875882 -8.501947 -11.354407 5.674000 0.000007 -0.000008 185.043021 142.191657 115.791596 -0.000016 -0.000002 -12.238695 -178.304848 -169.551906 -175.313157 0.000003 -0.000010 -10.253699 88.895015 -4.616372 30.492806 -2.882593 -1.580091 6.695793 -4.224674 -18.068176 35.542464 -4.235603 0.000014 -0.000002 -5.902892 22.335359 62.146607 0.000007 -0.000000 -10.709900 -2.470397 -17.866378 -10.822221 -0.000008 0.000004 -11.716796 75.012334 15.215802 56.725455 2.279490 0.210402 -2.475501 65.656320 -38.455048 -10.462707 -0.000003 -0.000006 -20.742815 -177.144972 -24.992847 142.133272 -0.000003 -0.000001 -16.666006 97.272419 3.153582 54.876841 -1.961900 0.232304 -2.727400 -250.958417 29.176427 -69.250687 -0.000011 -0.000010 -20.526804 366.649145 33.291090 -95.173106 0.000003 0.000004 -16.867289 -35.696133 16.353853 -8.991727
70.200409 66.741295 25.363091 23.962911 -58.089031 71.406418 -0.637399 0.831603 5.390099 14.942767 11.105052 0.863258 0.000010 0.000002 4.429899 -6.077326 -0.251784 0.096984 -0.000017 0.000013 10.301398 435.172498 -7.323022 -0.946593 0.000001 0.000003 2.173900 -353.179219 3.916569 -0.738548 2.142389 -0.572687 5.717797 14.898762 -8.559243 -11.344356 5.674001 0.000011 -0.000023 185.018596 142.098821 115.489988 0.000009 0.000011 -12.238702 -178.263962 -169.487634 -175.190964 0.000004 -0.000001 -10.253698 88.865399 -4.612612 30.439424 -2.882614 -1.580094 6.695795 -4.212485 -17.971305 35.527803 -4.235604 0.000005 -0.000002 -5.841515 22.462752 62.057186 0.000008 -0.000005 -10.709900 -2.348297 -17.660776 -10.695549 -0.000003 -0.000002 -11.716795 74.712215 15.141042 57.031567 2.279501 0.210407 -2.475510 65.933018 -38.674426 -10.167899 0.000002 -0.000000 -20.742805 -177.246223 -25.048570 142.102304 -0.000002 0.000008 -16.666000 97.275015 3.193030 54.834483 -1.961890 0.232297 -2.727395 -251.233100 29.244268 -68.999035 -0.000012 -0.000005 -20.526806 366.794983 34.058875 -95.195536 -0.000002 0.000010 -16.867306 -35.094321 16.454849 -8.816457
70.150208 66.714989 25.368290 23.592747 -57.955118 71.074587 -0.637395 0.831602 5.390093 14.842022 10.971699 1.006874 0.000001 -0.000001 4.429895 -6.003015 -0.260288 0.096206 -0.000009 -0.000003 10.301381 435.201568 -7.413681 -0.794700 -0.000000 -0.000004 2.173898 -353.208179 3.884177 -0.813355 2.142404 -0.572703 5.717793 14.904571 -8.636786 -11.361449 5.673999 0.000002 0.000000 185.070287 142.050572 115.246424 0.000007 0.000003 -12.238700 -178.237475 -169.475845 -175.097145 0.000006 -0.000012 -10.253695 88.828106 -4.629536 30.362800 -2.882599 -1.580100 6.695782 -4.236742 -17.875554 35.436053 -4.235592 0.000006 0.000008 -5.721128 22.544110 61.978168 -0.000001 0.000001 -10.709890 -2.540863 -17.439945 -10.699900 0.000008 0.000009 -11.716807 74.663530 15.058542 57.347566 2.279493 0.210403 -2.475509 65.933360 -38.870733 -10.048638 -0.000005 -0.000003 -20.742796 -177.174424 -25.110677 142.052444 -0.000007 0.000008 -16.666010 97.269974 3.233861 54.823162 -1.961891 0.232300 -2.727405 -251.583570 29.246088 -68.757486 -0.000008 -0.000011 -20.526802 366.994725 35.070945 -95.261482 -0.000008 -0.000005 -16.867298 -34.416077 16.517156 -8.549322
